<svg xmlns="http://www.w3.org/2000/svg" id="svg" version="1.1" style="display: block;"
     viewBox="173.61 115.92 240.7 381.29">
    <path d="M0 0 C4.5625 0.6875 4.5625 0.6875 9 2 C14.1875 4.1875 14.1875 4.1875 19 7 C22.375 10.1875 22.375 10.1875 25 14 C27.25 18.3125 27.25 18.3125 29 24 C31.36392732 38.66484252 31.9918698 53.68012501 32.140625 68.515625 C32.15996094 70.11664063 32.17929687 71.71765625 32.19921875 73.3671875 C32.23323411 76.63789476 32.25131443 79.9088044 32.25390625 83.1796875 C32.32534444 87.83444961 32.48776674 92.37246185 33 97 C34.78615388 103.44760958 37.65477059 109.26638751 40.5 115.3125 C44.15022878 121.77566282 48.95470502 127.31770217 53.6875 133.0078125 C57.46777431 137.56375631 61.08779866 142.21979952 64.66796875 146.93359375 C66.19380868 148.93993269 67.7375098 150.93284347 69.30078125 152.91015625 C75.42479192 160.76877444 80.7307454 168.98237606 85 178 C87.23004885 184.57342223 88.64076951 191.20384756 90 198 C90.09649038 202.25692842 90.13921962 206.49359348 90.125 210.75 C90.12886719 211.89210938 90.13273438 213.03421875 90.13671875 214.2109375 C90.1294261 220.5555447 89.7011531 226.70237032 89 233 C89.33 233.99 89.66 234.98 90 236 C91.32 236.66 92.64 237.32 94 238 C99.29625256 245.73905692 103.37767316 254.37033899 107 263 C108.11328125 266.2578125 108.11328125 266.2578125 109 270 C109.54642942 277.77065219 109.37826015 285.52572817 108.53515625 293.26953125 C107.41088604 300.04841494 105.67618121 306.3837685 103.25 312.8125 C100.44513661 319.40809461 97.07493252 325.10590117 93 331 C92.13375 332.340625 91.2675 333.68125 90.375 335.0625 C86.45562802 339.63510064 82.25916927 343.10409687 77.421875 346.671875 C72.47533889 350.03732651 67.5735458 352.81308596 62 355 C57.04935657 356.59549234 52.09295094 357.9413529 47 359 C45.411875 359.12375 43.82375 359.2475 42.1875 359.375 C40.1146875 359.684375 40.1146875 359.684375 38 360 C34.63894124 361.95304766 31.30933053 363.96052886 28 366 C13.04262295 373.3499164 -3.90703689 376.97675922 -20 381 C-30.27942741 381.43334841 -40.57332055 381.2797592 -50.765625 379.81640625 C-60.79681776 377.88234787 -70.62932329 375.18615725 -80.09765625 371.33203125 C-85.57102644 368.72935141 -90.26352606 365.80949923 -95.1875 362.25 C-101.76963672 356.43720394 -108.14897059 350.78773125 -113.44921875 343.74609375 C-118.24787312 336.58477424 -122.20925251 329.14253577 -125.4921875 321.171875 C-128.13559166 313.85800028 -129.98393035 306.71729089 -131 299 C-131.54182612 289.56729986 -131.63222516 280.20856267 -130.4921875 270.81640625 C-128.13853887 258.68294177 -122.82497798 247.55626441 -117.875 236.3125 C-117.02679688 234.41113281 -116.17859375 232.50976562 -115.3046875 230.55078125 C-113.16753346 225.40350008 -111.42094666 220.38584622 -110 215 C-109.71896235 209.66028461 -110.11629577 205.30222536 -111 200 C-111.35609994 193.97548959 -111.36118275 188.02472893 -111 182 C-110.11746991 177.12210272 -108.79751893 172.61621971 -107 168 C-103.45451853 160.24425927 -98.19151029 153.68124276 -93.0546875 146.91796875 C-90.54885142 143.7039616 -87.99577857 140.55725243 -85.375 137.4375 C-80.04746339 130.96145459 -75.2509153 124.23364087 -71 117 C-61.93128353 98.47231492 -56.52692971 78.1023306 -50.9375 58.3125 C-41.61031514 25.35833039 -41.61031514 25.35833039 -37.296875 16.50390625 C-35.5625 13.5625 -35.5625 13.5625 -32 9 C-27.875 5.4375 -27.875 5.4375 -24 3 C-19 1 -19 1 -15.375 0.375 C-10.20228042 -0.06837596 -5.19091273 -0.17497459 0 0 Z M-17.5390625 7.140625 C-18.35117187 7.75421875 -19.16328125 8.3678125 -20 9 C-19.505 11.97 -19.505 11.97 -19 15 C-19.99 15.33 -20.98 15.66 -22 16 C-21.79729101 19.902148 -21.21202745 23.69430154 -20.640625 27.55859375 C-20.81851563 29.26208984 -20.81851563 29.26208984 -21 31 C-22.05703125 31.48726562 -23.1140625 31.97453125 -24.203125 32.4765625 C-28 33 -28 33 -32.5 32.9375 C-33.655 32.958125 -34.81 32.97875 -36 33 C-35.505 34.485 -35.505 34.485 -35 36 C-33.515 36.495 -33.515 36.495 -32 37 C-32 37.66 -32 38.32 -32 39 C-33.08410156 38.84917969 -34.16820312 38.69835937 -35.28515625 38.54296875 C-36.51105469 38.69378906 -37.73695313 38.84460938 -39 39 C-41.16372426 43.01172383 -41.16372426 43.01172383 -42.4375 48.3125 C-43.015 50.32214844 -43.5925 52.33179688 -44.1875 54.40234375 C-44.48269531 55.47983887 -44.77789062 56.55733398 -45.08203125 57.66748047 C-46.62240777 63.25953884 -48.28703181 68.81464203 -49.9375 74.375 C-50.26983643 75.50276855 -50.60217285 76.63053711 -50.94458008 77.79248047 C-59.94507634 108.21663205 -59.94507634 108.21663205 -65 118.75 C-70.79944601 128.89903051 -77.2823026 137.6087844 -84.96484375 146.41796875 C-90.43540788 152.87422011 -95.56378779 159.5861567 -99.66015625 167.0078125 C-101.49198335 170.84236601 -102.91880816 174.72973129 -104.140625 178.796875 C-105.10597038 184.64160249 -105.02848855 190.0585285 -104.86816406 195.96459961 C-104.3812895 214.39441123 -104.3812895 214.39441123 -105.90625 223.28125 C-107.33606253 227.70369341 -109.03825116 231.78440369 -111 236 C-112.54541261 239.45026031 -114.08095461 242.90482858 -115.61621094 246.35961914 C-116.67907686 248.72787882 -117.75958933 251.08832397 -118.86035156 253.43920898 C-121.19886693 258.49865489 -123.01603708 263.06699515 -124.3203125 268.515625 C-125.76365687 278.03837984 -126.40762196 287.37797628 -126 297 C-125.05077099 305.19788692 -123.06179716 312.70186102 -120.34375 320.4609375 C-118.16219797 326.20653673 -115.60719236 331.48807235 -112.29296875 336.66796875 C-108.02803659 342.82649604 -103.22685234 348.29773107 -97.83984375 353.5 C-93.55220857 357.27453441 -88.99714887 360.28202257 -84 363 C-82.90300781 363.60714844 -81.80601562 364.21429688 -80.67578125 364.83984375 C-75.33108076 367.57286357 -70.1355736 369.6940128 -64.33203125 371.2578125 C-52.36224176 373.80457622 -40.23417308 375.52908525 -28 376 C-21.15289406 375.75833744 -14.75000779 374.7152238 -8.125 372.9921875 C-4.03865932 371.76790686 -0.02321362 370.41798741 4 369 C5.61003906 368.43667969 7.22007812 367.87335938 8.87890625 367.29296875 C21.26682853 362.87929334 21.26682853 362.87929334 33 357 C36.56668017 354.02204194 36.56668017 354.02204194 39 351 C39 350.34 39 349.68 39 349 C40.65 348.67 42.3 348.34 44 348 C44 349.65 44 351.3 44 353 C48.48828328 353.28711999 48.48828328 353.28711999 54 352 C59.58293512 350.32236925 64.80833652 348.16386885 69.95703125 345.4296875 C74.55197441 342.66629511 78.57383285 339.50371213 82.625 336 C86.15484068 332.2680933 88.95121537 328.28175155 91.6875 323.9375 C96.08496163 316.27269363 99.38582888 308.43624037 102 300 C103.3691299 294.2745477 103.996672 289.06190071 104.3125 283.1875 C104.02416198 277.47840716 103.4725595 272.27975556 102.1796875 266.7265625 C99.39182669 257.91987636 94.7096994 249.97339026 90.125 242 C89.42375 241.01 88.7225 240.02 88 239 C87.34 239 86.68 239 86 239 C84.69703459 241.44118807 83.48419946 243.93066167 82.3125 246.4375 C79.9184262 251.33800486 77.58872269 255.5844467 74.4375 260.0625 C71.09871357 263.88692809 67.65622721 267.47918862 64 271 C63.26136719 271.79664063 62.52273438 272.59328125 61.76171875 273.4140625 C58.56872635 276.40382341 55.19547417 278.39335298 51.4375 280.625 C47.43560251 283.18145283 47.43560251 283.18145283 44 286 C43.113125 287.69125 42.22625 289.3825 41.3125 291.125 C39.96224569 296.67635496 39.96224569 296.67635496 39.53515625 301.11328125 C38.875 305.4375 38.875 305.4375 37.90234375 309.55859375 C37.27457031 310.69425781 36.64679688 311.82992188 36 313 C34.72253906 313.63035156 33.44507813 314.26070313 32.12890625 314.91015625 C27.3843949 316.01233666 22.85496466 316.63670333 18 317 C16.8140625 317.1134375 15.628125 317.226875 14.40625 317.34375 C11.4375 317.5 11.4375 317.5 7 317 C6.67 315.68 6.34 314.36 6 313 C6.33 311.35 6.66 309.7 7 308 C3.6514737 307.15226157 3.6514737 307.15226157 0 307 C-0.66 306.67 -1.32 306.34 -2 306 C-2.33 304.02 -2.66 302.04 -3 300 C-7.05941145 298.66466729 -10.81973315 297.80974687 -15 297 C-29.37480308 293.761408 -43.44832005 290.57283782 -56.8125 284.25 C-64.13505688 279.662374 -69.89024727 274.10975273 -76 268 C-77.8871875 267.62875 -77.8871875 267.62875 -79.8125 267.25 C-85 266 -85 266 -88.78125 264.20703125 C-94.10550677 261.37465047 -99.16906205 258.62320346 -104 255 C-104.495 253.02 -104.495 253.02 -105 251 C-100.45886237 253.23452804 -96.27154965 255.8189669 -92.0625 258.625 C-87.86987634 261.2157415 -87.86987634 261.2157415 -82.4375 263.1875 C-80.2409375 263.5896875 -80.2409375 263.5896875 -78 264 C-78.83039419 258.34182613 -78.83039419 258.34182613 -80.046875 254.2890625 C-81.01367188 252.66097656 -81.01367188 252.66097656 -82 251 C-85.80617056 249.25014648 -85.80617056 249.25014648 -90.25 248.375 C-94.703125 247.3359375 -94.703125 247.3359375 -99 246 C-102.984375 243.5390625 -102.984375 243.5390625 -106 241 C-106.33 240.01 -106.66 239.02 -107 238 C-101 240 -101 240 -95.5 242.5625 C-92.7775 243.7690625 -92.7775 243.7690625 -90 245 C-88.02 245.33 -86.04 245.66 -84 246 C-83.67 245.01 -83.34 244.02 -83 243 C-83.66 241.02 -84.32 239.04 -85 237 C-88.53786342 235.76402896 -88.53786342 235.76402896 -92.625 235.375 C-96.7890625 234.8359375 -96.7890625 234.8359375 -100 234 C-100 232.68 -100 231.36 -100 230 C-96.90234375 230.1171875 -96.90234375 230.1171875 -92.9375 230.875 C-90.63463588 231.30523027 -88.32342097 231.70000625 -86 232 C-86.33 231.34 -86.66 230.68 -87 230 C-90.2976687 228.58075018 -93.63337892 227.2468967 -97 226 C-97.66 226 -98.32 226 -99 226 C-99 224.68 -99 223.36 -99 222 C-95.62603835 223.22689514 -92.29364275 224.57143206 -89 226 C-88.01 226 -87.02 226 -86 226 C-85.79375 224.80375 -85.5875 223.6075 -85.375 222.375 C-85.58125 220.93125 -85.7875 219.4875 -86 218 C-89.37659812 214.60507574 -89.37659812 214.60507574 -93 212 C-93 211.34 -93 210.68 -93 210 C-92.34 209.34 -91.68 208.68 -91 208 C-92.98 205.525 -92.98 205.525 -95 203 C-95.66 201.02 -96.32 199.04 -97 197 C-95.35 197.33 -93.7 197.66 -92 198 C-92.33 196.02 -92.66 194.04 -93 192 C-93.99 190.02 -93.99 190.02 -95 188 C-95 186.68 -95 185.36 -95 184 C-94.01 184 -93.02 184 -92 184 C-88.95096989 188.66904842 -86.94286304 193.78939248 -85 199 C-82.21552926 209.4351774 -80.82716097 220.0479998 -79.5 230.75 C-78.33165221 240.04055171 -77.02471652 249.11040942 -74 258 C-71.32791585 263.34416831 -68.39749956 267.51416721 -64.625 272.125 C-60.57196047 275.52078988 -57.08775191 277.76973054 -52.4375 280.1875 C-40.15264635 285.95340112 -27.84007318 289.4021797 -14.625 292.3125 C-13.42391602 292.57949707 -12.22283203 292.84649414 -10.98535156 293.12158203 C-5.91290016 294.19381327 -1.12916565 294.99301807 4.05859375 295.2734375 C5.35925781 295.18320312 6.65992188 295.09296875 8 295 C12.72309128 293.42864734 12.72309128 293.42864734 17 291 C20.51172667 288.619193 20.51172667 288.619193 23 286 C23 285.01 23 284.02 23 283 C16.41857139 283.00296785 16.41857139 283.00296785 10 284 C9.34 285.32 8.68 286.64 8 288 C3.1875 287.0703125 3.1875 287.0703125 -3 285.125 C-4.07983154 284.78927979 -5.15966309 284.45355957 -6.2722168 284.10766602 C-8.47545443 283.41810558 -10.6756073 282.71861129 -12.87255859 282.00927734 C-15.64350867 281.11504568 -18.42461634 280.25242512 -21.20703125 279.39453125 C-27.71288162 277.33627664 -34.08216049 275.19421539 -40.1875 272.125 C-45 269 -45 269 -48.9375 265.375 C-52 261 -52 261 -54.3125 255.5 C-56.47277429 248.1318091 -57.29926408 240.62885269 -58 233 C-58.30061747 226.8717499 -58.3698185 220.75989214 -58.375 214.625 C-58.39949219 213.04460937 -58.42398438 211.46421875 -58.44921875 209.8359375 C-58.45308594 208.33546875 -58.45695312 206.835 -58.4609375 205.2890625 C-58.46915527 203.93506348 -58.47737305 202.58106445 -58.48583984 201.18603516 C-58.24534912 199.60894775 -58.24534912 199.60894775 -58 198 C-56.68 197.34 -55.36 196.68 -54 196 C-53.63141223 198.66202278 -53.29677581 201.32901772 -53 204 C-52.01 203.01 -51.02 202.02 -50 201 C-47.81667449 197.13338795 -47.81667449 197.13338795 -46 193 C-44.82396811 187.11984053 -44.6326124 181.40286265 -44.37890625 175.421875 C-44.25386719 174.29265625 -44.12882812 173.1634375 -44 172 C-43.34 171.67 -42.68 171.34 -42 171 C-41.31122473 176.67695826 -41.53887957 182.31132619 -42 188 C-43.26880815 193.49974091 -44.94322391 198.74587199 -47 204 C-47.66 205.32 -48.32 206.64 -49 208 C-47.35 206.68 -45.7 205.36 -44 204 C-41.90968286 200.61553914 -41.90968286 200.61553914 -40.1875 196.875 C-39.28064453 195.01488281 -39.28064453 195.01488281 -38.35546875 193.1171875 C-37.90816406 192.08851563 -37.46085937 191.05984375 -37 190 C-37 189.34 -37 188.68 -37 188 C-36.01 188 -35.02 188 -34 188 C-34.9375 192.375 -34.9375 192.375 -37 198 C-39.6875 203.25 -39.6875 203.25 -43 208 C-47.25 211.5625 -47.25 211.5625 -51 214 C-51.66 214.33 -52.32 214.66 -53 215 C-53.33 216.65 -53.66 218.3 -54 220 C-53.76422759 225.67954738 -53.76422759 225.67954738 -53 231 C-52.34 231.33 -51.68 231.66 -51 232 C-40.94390619 229.36626115 -31.51887779 225.42449601 -21.92578125 221.453125 C-15.89981244 218.95852486 -9.86778531 216.48491178 -3.8125 214.0625 C-1.09966797 212.96615234 -1.09966797 212.96615234 1.66796875 211.84765625 C7.11270783 209.96094447 12.30910711 208.86080733 18 208 C22.625 207.5625 22.625 207.5625 26 208 C26.33 209.65 26.66 211.3 27 213 C30.79643918 214.20196144 34.46463827 214.41316173 38.42578125 214.7890625 C45.31958512 215.10696635 52.16300898 214.99505503 59 214 C60.32 213.34 61.64 212.68 63 212 C62.87625 210.39125 62.7525 208.7825 62.625 207.125 C61.820625 204.588125 61.820625 204.588125 61 202 C60.0925 201.175 59.185 200.35 58.25 199.5 C54.60888835 197.74692775 54.60888835 197.74692775 49 196 C47.741875 195.855625 46.48375 195.71125 45.1875 195.5625 C44.135625 195.376875 43.08375 195.19125 42 195 C41.67 194.01 41.34 193.02 41 192 C44 192 47 192 50 192 C49.67 191.01 49.34 190.02 49 189 C50.9490625 189.3403125 50.9490625 189.3403125 52.9375 189.6875 C54.278125 189.790625 55.61875 189.89375 57 190 C57 188.02 57 186.04 57 184 C58.32 184 59.64 184 61 184 C62.26785543 187.69791167 63.16016569 191.19385437 64 195 C64.35449219 196.4128125 64.70898438 197.825625 65.07421875 199.28125 C66.72487354 206.09237292 68.27012989 212.78869096 68.5 219.8125 C68.12143052 224.49729736 67.61121579 228.23089014 66.375 232.6875 C64.96863718 236.75520913 63.35214316 240.26486336 61.375 244.125 C57.36422148 249.91834675 52.82310443 254.88458621 48 260 C46.80375 261.381875 45.6075 262.76375 44.375 264.1875 C40.72463476 268.31106074 37.0206678 272.23461269 33 276 C31.845 276.495 30.69 276.99 29.5 277.5 C28.675 277.995 27.85 278.49 27 279 C26.95629003 281.66630841 26.96020344 284.33363031 27 287 C26.0409375 288.5778125 26.0409375 288.5778125 25.0625 290.1875 C22 293 22 293 17.8125 295.6875 C12.95589989 298.02119096 8.15514907 299.4752376 3 301 C3 301.66 3 302.32 3 303 C3.928125 303.144375 4.85625 303.28875 5.8125 303.4375 C7.194375 303.293125 8.57625 303.14875 10 303 C12.59875 301.7625 12.59875 301.7625 15.25 300.5 C17.1475 299.675 19.045 298.85 21 298 C27.1875 297.5625 27.1875 297.5625 32 298 C32 298.66 32 299.32 32 300 C32.66 300 33.32 300 34 300 C35.54401419 296.04230098 36.84501883 292.02352789 38.171875 287.98828125 C38.77515625 286.67214844 39.3784375 285.35601562 40 284 C43.65583659 280.42001065 47.7783933 277.71802344 52.0625 274.9375 C55.9190054 272.43101966 59.38673374 269.89061301 63 267 C68.09262785 261.36689894 72.60560552 255.43049119 76.38671875 248.83984375 C78.37388325 244.93530426 80.22934423 241.00681564 82 237 C82.9590625 234.834375 82.9590625 234.834375 83.9375 232.625 C85.65898954 225.13145729 86 217.6754211 86 210 C85.53089722 202.89749078 84.13786166 196.07441288 82.375 189.1875 C79.79895104 180.7179073 76.22970279 172.76945406 72 165 C69.23564913 160.78485505 66.21056363 156.88241399 63 153 C62.27941406 152.10152344 61.55882812 151.20304688 60.81640625 150.27734375 C57.68504968 146.39803391 54.49940311 142.57628861 51.234375 138.80859375 C44.44774175 130.95575445 38.86317421 123.15371358 33.8125 114.0625 C32.24712594 110.55390297 31.04105226 107.15192192 29.875 103.5 C29.25625 101.685 28.6375 99.87 28 98 C27.34 98 26.68 98 26 98 C25.34 98.99 24.68 99.98 24 101 C22.68 101.33 21.36 101.66 20 102 C21.54008413 97.56093397 23.16835438 93.31387575 25 89 C25.66 87.35 26.32 85.7 27 84 C27.19558625 79.86680243 27.28521027 75.81883782 27.25 71.6875 C27.23549805 69.94919922 27.23549805 69.94919922 27.22070312 68.17578125 C27.09042289 56.43967889 27.09042289 56.43967889 25.97265625 44.76953125 C25.49119141 43.39861328 25.49119141 43.39861328 25 42 C23.659375 41.401875 22.31875 40.80375 20.9375 40.1875 C19.638125 40.125625 18.33875 40.06375 17 40 C16.67 39.01 16.34 38.02 16 37 C17.98 36.505 17.98 36.505 20 36 C19.13375 35.608125 18.2675 35.21625 17.375 34.8125 C16.26125 34.214375 15.1475 33.61625 14 33 C13.01 30.03 13.01 30.03 12 27 C12.33 25.35 12.66 23.7 13 22 C12.67 21.34 12.34 20.68 12 20 C13.32 18.35 14.64 16.7 16 15 C16 14.01 16 13.02 16 12 C11.05459285 9.52729643 6.37304063 7.34326016 1 6 C-1.45551985 5.85588371 -3.91543102 5.77945592 -6.375 5.75 C-8.30472656 5.71132812 -8.30472656 5.71132812 -10.2734375 5.671875 C-14.0238969 5.86309429 -14.0238969 5.86309429 -17.5390625 7.140625 Z M-25 12 C-24.34 13.32 -23.68 14.64 -23 16 C-23 15.01 -23 14.02 -23 13 C-23.66 12.67 -24.32 12.34 -25 12 Z M-27 20 C-27 20.66 -27 21.32 -27 22 C-26.34 22 -25.68 22 -25 22 C-25 21.34 -25 20.68 -25 20 C-25.66 20 -26.32 20 -27 20 Z M17 22 C17 23.32 17 24.64 17 26 C17.66 26 18.32 26 19 26 C19 24.68 19 23.36 19 22 C18.34 22 17.68 22 17 22 Z M-36 27 C-35 29 -35 29 -35 29 Z M3.375 213.83203125 C-1.06104084 215.01629573 -4.73315134 216.59436646 -8.8125 218.6875 C-10.12863281 219.38875 -11.44476563 220.09 -12.80078125 220.8125 C-21.70550217 225.45123834 -31.04355208 229.68668361 -40.76171875 232.26171875 C-42.22222656 232.62910156 -43.68273437 232.99648438 -45.1875 233.375 C-49.01575698 234.35379713 -49.01575698 234.35379713 -52 236 C-52.37125 237.711875 -52.7425 239.42375 -53.125 241.1875 C-52.75375 242.775625 -52.3825 244.36375 -52 246 C-51.34 246.66 -50.68 247.32 -50 248 C-33.06260376 250.08278886 -14.58567297 250.13601408 2.41796875 248.46875 C6.98482848 247.78054182 11.4806756 246.94905812 16 246 C17.39734375 245.73316406 18.7946875 245.46632813 20.234375 245.19140625 C31.71308764 242.79111783 42.21819947 238.53597524 53 234 C54.82660156 233.29875 56.65320313 232.5975 58.53515625 231.875 C60.00855469 231.25625 61.48195313 230.6375 63 230 C63.33 229.34 63.66 228.68 64 228 C64.27328125 226.3190625 64.5465625 224.638125 64.828125 222.90625 C64.41820312 220.47765625 64.41820312 220.47765625 64 218 C59.06698288 216.96502834 59.06698288 216.96502834 55.34375 217.21875 C54.1578125 217.3115625 52.971875 217.404375 51.75 217.5 C38.27909517 218.23145185 38.27909517 218.23145185 31.515625 217.09375 C28.78539062 216.55234375 28.78539062 216.55234375 26 216 C24.02 215.67 22.04 215.34 20 215 C20 214.01 20 213.02 20 212 C14.24827445 212 9.01544552 212.74379312 3.375 213.83203125 Z M58 236 C54.31545668 237.30751578 50.69495873 238.68484871 47.0625 240.125 C34.2987024 245.04170096 21.48310048 249.09325491 7.9375 251.25 C-9.96263977 253.45886475 -28.01680905 253.59019126 -45.96484375 252.0234375 C-46.96644531 252.01570313 -47.96804688 252.00796875 -49 252 C-49.33 252.66 -49.66 253.32 -50 254 C-47.25 258.66666667 -47.25 258.66666667 -44 263 C-43.34 263 -42.68 263 -42 263 C-41.67 263.99 -41.34 264.98 -41 266 C-33.02689332 267.5690782 -24.80814376 267.26587216 -16.71484375 267.20703125 C-5.27893181 266.79274326 5.35841469 264.5204862 16.40136719 261.58984375 C26.8257919 258.72738656 37.2651673 255.77147516 47 251 C51.61008088 248.33693468 51.61008088 248.33693468 55 245 C58.12725322 240.92041285 58.12725322 240.92041285 60 237 C59.01 236.505 59.01 236.505 58 236 Z M42 256 C39.69382559 256.73049219 37.405801 257.51874136 35.12890625 258.3359375 C33.74896484 258.82320313 32.36902344 259.31046875 30.94726562 259.8125 C28.05775079 260.84217121 25.16968847 261.87592902 22.28320312 262.9140625 C14.19893874 265.75984339 6.55082673 267.95693669 -2 269 C-7.80438339 269.51245983 -13.61491801 269.87191643 -19.43164062 270.2109375 C-22.29350033 270.40161856 -25.14863516 270.68964736 -28 271 C-27.67 271.66 -27.34 272.32 -27 273 C-23.38323737 274.25388991 -19.72971574 275.40239326 -16.0625 276.5 C-13.04802734 277.41265625 -13.04802734 277.41265625 -9.97265625 278.34375 C-2.07357944 280.62290474 -2.07357944 280.62290474 6 282 C6.99 280.35 7.98 278.7 9 277 C12.6875 273.8125 12.6875 273.8125 17 271 C20.9375 269.625 20.9375 269.625 25 269 C26.505625 269.12375 28.01125 269.2475 29.5625 269.375 C31.026875 269.25125 32.49125 269.1275 34 269 C37.92949072 265.40202408 37.92949072 265.40202408 41 261 C42.32 259.35 43.64 257.7 45 256 C44.01 256 43.02 256 42 256 Z M27 272 C27 272.66 27 273.32 27 274 C27.66 274 28.32 274 29 274 C29 273.34 29 272.68 29 272 C28.34 272 27.68 272 27 272 Z M17 276 C17 276.99 17 277.98 17 279 C18.32 278.01 19.64 277.02 21 276 C19.68 276 18.36 276 17 276 Z M17 310 C15.35 310.66 13.7 311.32 12 312 C12 312.33 12 312.66 12 313 C15.97297326 312.7430151 15.97297326 312.7430151 20 312 C20.33 311.34 20.66 310.68 21 310 C19.68 310 18.36 310 17 310 Z "
          transform="translate(305,116)" style="fill: #fff;"/>
    <path d="M0 0 C1.65 0.66 3.3 1.32 5 2 C4.67 3.98 4.34 5.96 4 8 C1.07882505 12.68746677 -2.09693718 17.13534626 -5.3125 21.625 C-6.199375 23.06875 -7.08625 24.5125 -8 26 C-8.350625 27.175625 -8.70125 28.35125 -9.0625 29.5625 C-9.041875 30.696875 -9.02125 31.83125 -9 33 C-8.0884151 37.23647187 -8.0884151 37.23647187 -6 41 C-4.845 42.03125 -3.69 43.0625 -2.5 44.125 C-1.2625 44.558125 -1.2625 44.558125 0 45 C-1.57078756 41.62042676 -3.25968891 38.2954827 -5 35 C-5.33 33.35 -5.66 31.7 -6 30 C-4.948125 29.9175 -3.89625 29.835 -2.8125 29.75 C-1.554375 30.1625 -0.29625 30.575 1 31 C1.763125 32.010625 2.52625 33.02125 3.3125 34.0625 C5.04219881 38.09846388 6.13837881 41.69189403 7 46 C7.10441406 47.10988281 7.20882813 48.21976563 7.31640625 49.36328125 C7.66753897 53.38045239 7.66753897 53.38045239 9 59 C10.216875 59.515625 11.43375 60.03125 12.6875 60.5625 C13.780625 60.376875 14.87375 60.19125 16 60 C15.67 58.68 15.34 57.36 15 56 C15.33 55.34 15.66 54.68 16 54 C15.67 52.68 15.34 51.36 15 50 C17.96484375 49.46875 17.96484375 49.46875 21.9375 49.5 C23.24589844 49.4896875 24.55429687 49.479375 25.90234375 49.46875 C26.92457031 49.6440625 27.94679688 49.819375 29 50 C29 52 29 54 29 56 C29.66 56 30.32 56 31 56 C31.76015589 53.25334297 32.40681853 50.47498947 33 47.6875 C33.62147214 44.78163223 34.28126765 41.88335203 35 39 C35.66 38.01 36.32 37.02 37 36 C39.97 35.505 39.97 35.505 43 35 C43 36.65 43 38.3 43 40 C42.67 40.99 42.34 41.98 42 43 C42.99 41.35 43.98 39.7 45 38 C45.06692779 33.59572823 45.06692779 33.59572823 44 29 C42.00781639 24.51758687 39.63726166 20.3487198 37.25 16.0625 C36.5075 14.391875 35.765 12.72125 35 11 C34.79375 9.30875 34.5875 7.6175 34.375 5.875 C34.58125 4.59625 34.7875 3.3175 35 2 C36.65 2 38.3 2 40 2 C41.01698693 5.0509608 42.00385628 8.11593178 42.8203125 11.2265625 C44.05300939 15.16955984 45.73606997 18.40080779 47.75 22 C49.56640625 25.5 49.56640625 25.5 51 29 C51.58984375 32.5625 51.58984375 32.5625 51.6875 36 C51.460625 37.98 51.23375 39.96 51 42 C50.443125 43.19625 49.88625 44.3925 49.3125 45.625 C48.549375 46.40875 47.78625 47.1925 47 48 C45.35 48.99 43.7 49.98 42 51 C41.01 51 40.02 51 39 51 C38.608125 52.8975 38.21625 54.795 37.8125 56.75 C37.07421875 60.06640625 37.07421875 60.06640625 36 63 C34.081875 64.3303125 34.081875 64.3303125 32.125 65.6875 C28 67 28 67 23 68 C18.125 68.25 18.125 68.25 13 68 C9.125 66.75 9.125 66.75 6 65 C4.68 63.68 3.36 62.36 2 61 C1.896875 59.47375 1.79375 57.9475 1.6875 56.375 C1.3471875 54.209375 1.3471875 54.209375 1 52 C-2.196531 50.69243933 -2.196531 50.69243933 -6 50 C-9.75 47.4375 -9.75 47.4375 -13 44 C-13.99 41.9271875 -13.99 41.9271875 -15 39.8125 C-16 35 -16 35 -16.0625 29.5 C-15.711875 27.685 -15.36125 25.87 -15 24 C-12.28334035 19.26164014 -9.14760265 15.19101519 -5.8125 10.875 C-4.884375 9.59625 -3.95625 8.3175 -3 7 C-2.484375 5.63875 -1.96875 4.2775 -1.4375 2.875 C-0.963125 1.92625 -0.48875 0.9775 0 0 Z "
          transform="translate(280,153)" style="fill: #fff;"/>
</svg>